<svg width="55" height="48" viewBox="0 0 55 48" fill="none" xmlns="http://www.w3.org/2000/svg">
<path fill-rule="evenodd" clip-rule="evenodd" d="M32.3963 10.2299C32.3963 7.82209 30.4619 5.87012 28.0763 5.87012C25.691 5.87012 23.7568 7.82209 23.7568 10.2299C23.7568 11.3601 24.1827 12.3898 24.8816 13.1644L24.8545 13.1927C24.8545 13.1927 26.3859 14.8787 26.5209 16.8538C26.5209 16.8538 26.6679 17.0883 26.9472 17.3067C26.9045 16.0398 26.7814 14.7718 26.4958 13.5352C26.1972 12.2424 25.5847 11.2015 25.0577 10.0285C25.8864 10.7621 26.6614 11.4955 27.0979 12.5531C27.2709 12.9723 27.6557 14.0807 28.2715 13.8311C28.6372 13.6829 28.8655 12.8967 29.0072 12.5529C29.4435 11.4955 30.2186 10.7621 31.0477 10.0285C30.5202 11.2015 29.9077 12.2424 29.6091 13.5352C29.3236 14.7718 29.2006 16.0398 29.1577 17.3067C29.4372 17.0883 29.584 16.8538 29.584 16.8538C29.7192 14.8787 31.2506 13.1927 31.2506 13.1927L31.248 13.1895C31.9604 12.4123 32.3963 11.3724 32.3963 10.2299ZM28.1004 13.2408C27.6662 13.2408 27.3141 12.4492 27.3141 12.0108C27.3141 11.5728 27.6662 11.2173 28.1004 11.2173C28.5342 11.2173 28.8863 11.5728 28.8863 12.0108C28.8863 12.4492 28.5342 13.2408 28.1004 13.2408Z" fill="#5EA8D0"/>
<path fill-rule="evenodd" clip-rule="evenodd" d="M42.5326 18.2551C44.2188 16.5526 44.2188 13.792 42.5326 12.0897C40.8454 10.3868 38.1106 10.3868 36.4236 12.0897C35.6317 12.8886 35.2115 13.9211 35.1629 14.9675L35.1238 14.9679C35.1238 14.9679 35.0257 17.2533 33.7374 18.7463C33.7374 18.7463 33.6767 19.0166 33.7217 19.3706C34.579 18.4442 35.3796 17.4601 36.0443 16.3817C36.7396 15.2546 37.0353 14.0812 37.4843 12.8756C37.5561 13.9858 37.5907 15.0578 37.1585 16.1168C36.9868 16.5369 36.483 17.5949 37.0929 17.8581C37.4553 18.0143 38.1679 17.6212 38.5088 17.4793C39.558 17.0433 40.6198 17.0777 41.7194 17.1502C40.525 17.6038 39.363 17.9024 38.2457 18.6036C37.1777 19.2744 36.2025 20.0829 35.2845 20.9482C35.6351 20.9937 35.9031 20.9321 35.9031 20.9321C37.3825 19.632 39.6467 19.5328 39.6467 19.5328V19.5286C40.6953 19.4877 41.732 19.0633 42.5326 18.2551ZM37.3855 17.3185C37.0782 17.0084 37.3843 16.1976 37.6907 15.8879C37.9982 15.5782 38.4961 15.578 38.8029 15.8877C39.1097 16.1976 39.1097 16.7001 38.8029 17.0098C38.4961 17.3195 37.6927 17.6282 37.3855 17.3185Z" fill="#8C4B8C"/>
<path fill-rule="evenodd" clip-rule="evenodd" d="M44.0762 31.1629C46.462 31.1637 48.3958 29.2115 48.3958 26.8034C48.3954 24.3956 46.462 22.4434 44.0762 22.4434C42.9567 22.4434 41.9364 22.8737 41.1685 23.5792L41.1404 23.5515C41.1404 23.5515 39.4699 25.0973 37.5131 25.2336C37.5131 25.2336 37.2807 25.3815 37.0645 25.6636C38.3199 25.6207 39.5756 25.4961 40.8006 25.2082C42.0823 24.907 43.1133 24.2887 44.2757 23.7566C43.5488 24.593 42.822 25.3753 41.7743 25.8159C41.3588 25.9905 40.2607 26.3788 40.5081 27C40.6549 27.3693 41.4337 27.5997 41.7743 27.7429C42.822 28.1835 43.5488 28.9656 44.2757 29.8018C43.1133 29.2698 42.0823 28.6516 40.8006 28.3504C39.5756 28.0623 38.3199 27.9377 37.0645 27.8948C37.2807 28.1771 37.5131 28.3251 37.5131 28.3251C39.4699 28.4615 41.1404 30.0069 41.1404 30.0069L41.1438 30.004C41.9138 30.7235 42.9438 31.1631 44.0762 31.1629ZM41.0932 26.8275C41.0932 26.3893 41.8775 26.0341 42.3119 26.0341C42.7454 26.0341 43.098 26.3893 43.0978 26.8275C43.0978 27.2657 42.7454 27.6209 42.3119 27.6209C41.8775 27.6209 41.0932 27.2657 41.0932 26.8275Z" fill="#DB2B73"/>
<path fill-rule="evenodd" clip-rule="evenodd" d="M36.1249 41.3931C37.8117 43.0952 40.5466 43.0958 42.2338 41.3931C43.921 39.6902 43.921 36.9296 42.2338 35.2273C41.4422 34.428 40.4193 34.0038 39.3822 33.9549L39.3818 33.9155C39.3818 33.9155 37.118 33.8163 35.6388 32.5158C35.6388 32.5158 35.3706 32.4548 35.0202 32.5002C35.9376 33.3657 36.9128 34.1743 37.981 34.8444C39.0981 35.5459 40.2603 35.8445 41.4549 36.298C40.3549 36.3704 39.2931 36.4049 38.2435 35.9691C37.8272 35.796 36.7794 35.2869 36.5185 35.9027C36.3637 36.2686 36.7531 36.9874 36.8936 37.3316C37.3262 38.3905 37.2916 39.4625 37.2194 40.5726C36.771 39.3671 36.4747 38.1937 35.7798 37.0662C35.1151 35.9885 34.3147 35.0042 33.4572 34.0777C33.412 34.4313 33.4725 34.7022 33.4725 34.7022C34.761 36.195 34.8589 38.4804 34.8589 38.4804H34.8632C34.9038 39.5386 35.3249 40.5846 36.1249 41.3931ZM37.0531 36.198C37.3603 35.8883 38.1635 36.1966 38.4705 36.5065C38.7774 36.8161 38.7778 37.3191 38.4705 37.6286C38.1639 37.9383 37.6656 37.9383 37.3585 37.6286C37.0517 37.3191 36.746 36.5078 37.0531 36.198Z" fill="#DA2F38"/>
<path fill-rule="evenodd" clip-rule="evenodd" d="M23.335 42.9512C23.3349 45.359 25.2689 47.3109 27.6549 47.3109C30.0403 47.3107 31.9742 45.359 31.9742 42.9512C31.9742 41.8212 31.5482 40.7911 30.8496 40.0165L30.8765 39.9884C30.8765 39.9884 29.3452 38.3024 29.2101 36.3274C29.2101 36.3274 29.0631 36.0926 28.784 35.874C28.8265 37.1414 28.9497 38.4089 29.2352 39.6456C29.5338 40.9386 30.1463 41.9792 30.6732 43.1524C29.8449 42.4187 29.0694 41.6851 28.6331 40.628C28.4601 40.2084 28.0753 39.1001 27.4599 39.3498C27.0936 39.4979 26.8656 40.2844 26.724 40.628C26.2877 41.6853 25.5127 42.4187 24.6836 43.1524C25.2108 41.9792 25.8235 40.9386 26.1221 39.6454C26.4071 38.4089 26.5307 37.1414 26.5735 35.874C26.2936 36.0926 26.1468 36.3274 26.1468 36.3274C26.012 38.3024 24.4804 39.9884 24.4804 39.9884L24.4835 39.9912C23.7706 40.7685 23.335 41.8083 23.335 42.9512ZM27.631 39.9405C28.0651 39.9405 28.4169 40.7317 28.4169 41.1701C28.4169 41.6083 28.0651 41.9637 27.631 41.9637C27.1968 41.9637 26.8446 41.6083 26.8446 41.1701C26.8446 40.7321 27.1968 39.9405 27.631 39.9405Z" fill="#E6782B"/>
<path fill-rule="evenodd" clip-rule="evenodd" d="M13.1998 34.9266C11.5128 36.6291 11.5128 39.3897 13.1998 41.0924C14.8868 42.7949 17.6217 42.7949 19.3085 41.0924C20.1003 40.293 20.5206 39.2606 20.5694 38.2142L20.6084 38.2138C20.6084 38.2138 20.7067 35.9283 21.9951 34.4354C21.9951 34.4354 22.0553 34.1651 22.0108 33.811C21.1531 34.7375 20.352 35.7216 19.6875 36.8C18.9928 37.927 18.697 39.1002 18.2477 40.3061C18.1759 39.1961 18.1418 38.1239 18.5738 37.0649C18.7451 36.6445 19.2497 35.5868 18.6395 35.3236C18.2768 35.1672 17.5648 35.5608 17.2234 35.7024C16.1742 36.1386 15.1125 36.104 14.0124 36.0313C15.2068 35.5783 16.3692 35.2793 17.4865 34.5783C18.5544 33.9073 19.5298 33.0992 20.4478 32.2335C20.0968 32.1882 19.8288 32.2494 19.8288 32.2494C18.3495 33.5495 16.0854 33.6489 16.0854 33.6489L16.0855 33.6532C15.0367 33.6944 14.0001 34.1184 13.1998 34.9266ZM18.3468 35.8634C18.6538 36.1729 18.3478 36.9841 18.0411 37.2942C17.7341 37.6035 17.2364 37.6041 16.9295 37.2942C16.6221 36.9841 16.6221 36.4816 16.9295 36.1719C17.2364 35.8622 18.04 35.5531 18.3468 35.8634Z" fill="#EFA72D"/>
<path fill-rule="evenodd" clip-rule="evenodd" d="M11.6558 22.0176C9.27015 22.0176 7.33614 23.9695 7.33594 26.3777C7.33614 28.7857 9.27015 30.7375 11.656 30.7373C12.7756 30.7373 13.796 30.307 14.5633 29.6019L14.5913 29.6296C14.5913 29.6296 16.2621 28.084 18.219 27.9475C18.219 27.9475 18.4513 27.7994 18.6677 27.5173C17.4121 27.5604 16.1563 27.6848 14.9309 27.9729C13.65 28.2739 12.6187 28.8924 11.4565 29.4241C12.1831 28.5881 12.9106 27.8058 13.9575 27.3652C14.3732 27.1902 15.4712 26.8023 15.224 26.1807C15.0775 25.8116 14.2982 25.5815 13.9575 25.4382C12.91 24.9978 12.1831 24.2155 11.4565 23.3791C12.6187 23.9111 13.65 24.5293 14.9311 24.8305C16.1563 25.1186 17.4121 25.2431 18.6677 25.2863C18.4513 25.0039 18.2188 24.8556 18.2188 24.8556C16.2621 24.7198 14.5913 23.1741 14.5913 23.1741L14.5884 23.1767C13.8182 22.4576 12.7878 22.0176 11.6558 22.0176ZM14.6392 26.3536C14.6392 26.7916 13.8547 27.1468 13.4205 27.1468C12.9867 27.147 12.6342 26.792 12.6342 26.3536C12.6342 25.9154 12.9863 25.56 13.4207 25.5601C13.8547 25.5601 14.6392 25.9154 14.6392 26.3536Z" fill="#60B345"/>
<path fill-rule="evenodd" clip-rule="evenodd" d="M19.6074 11.7879C17.9206 10.085 15.1855 10.085 13.4985 11.7879C11.8117 13.4904 11.8117 16.251 13.4987 17.9535C14.2905 18.7526 15.3132 19.1768 16.3499 19.2257L16.3505 19.2651C16.3505 19.2651 18.6147 19.3645 20.0941 20.6646C20.0941 20.6646 20.3621 20.7258 20.7127 20.6808C19.7947 19.8153 18.8197 19.0067 17.7511 18.336C16.6344 17.6345 15.4719 17.3361 14.2774 16.8826C15.3774 16.8102 16.4397 16.7759 17.4886 17.2119C17.9049 17.3848 18.9533 17.8939 19.214 17.2781C19.3688 16.9121 18.979 16.1934 18.8383 15.8492C18.4063 14.7901 18.4407 13.7181 18.5127 12.6082C18.9617 13.8135 19.258 14.9867 19.9527 16.1142C20.6175 17.1925 21.418 18.1766 22.2759 19.1031C22.3203 18.7491 22.2598 18.4786 22.2598 18.4786C20.9717 16.9858 20.873 14.7002 20.873 14.7002L20.8691 14.7006C20.8283 13.642 20.4082 12.5958 19.6074 11.7879ZM18.6794 16.9826C18.3724 17.2925 17.569 16.984 17.262 16.6741C16.9551 16.3644 16.9547 15.8619 17.2616 15.5522C17.569 15.2421 18.0667 15.2421 18.3736 15.5522C18.6806 15.8615 18.9862 16.6727 18.6794 16.9826Z" fill="#4FC0DF"/>
<path fill-rule="evenodd" clip-rule="evenodd" d="M26.3824 17.624C26.3824 17.624 28.1484 18.7804 29.6281 17.624C29.6281 17.624 30.2488 17.7687 29.7238 18.2988C29.1984 18.8285 28.244 19.455 26.3824 18.395C26.3824 18.395 25.8099 17.8171 26.3824 17.624Z" fill="#78929A"/>
<path fill-rule="evenodd" clip-rule="evenodd" d="M26.3824 18.877C26.3824 18.877 28.1484 20.0334 29.6281 18.877C29.6281 18.877 30.2488 19.0215 29.7238 19.5516C29.1984 20.0815 28.244 20.7078 26.3824 19.648C26.3824 19.648 25.8099 19.0697 26.3824 18.877Z" fill="#78929A"/>
<path fill-rule="evenodd" clip-rule="evenodd" d="M26.3824 20.1299C26.3824 20.1299 28.1484 21.2861 29.6281 20.1299C29.6281 20.1299 30.2488 20.2744 29.7238 20.8043C29.1984 21.3342 28.244 21.9607 26.3824 20.9009C26.3824 20.9009 25.8099 20.3227 26.3824 20.1299Z" fill="#78929A"/>
<path fill-rule="evenodd" clip-rule="evenodd" d="M33.0979 19.1924C33.0979 19.1924 33.5368 21.2701 35.3935 21.5087C35.3935 21.5087 35.7307 22.0538 34.9882 22.0538C34.2456 22.0538 33.1316 21.8152 32.5576 19.7373C32.5576 19.7373 32.5576 18.9198 33.0979 19.1924Z" fill="#78929A"/>
<path fill-rule="evenodd" clip-rule="evenodd" d="M32.2208 20.0772C32.2208 20.0772 32.6594 22.1551 34.5158 22.3935C34.5158 22.3935 34.8536 22.9386 34.1108 22.9386C33.3685 22.9386 32.2551 22.7002 31.6807 20.6221C31.6807 20.6221 31.6807 19.8045 32.2208 20.0772Z" fill="#78929A"/>
<path fill-rule="evenodd" clip-rule="evenodd" d="M31.3428 20.9628C31.3428 20.9628 31.7819 23.0405 33.6382 23.2793C33.6382 23.2793 33.9753 23.8242 33.2329 23.8242C32.4901 23.8242 31.3764 23.5856 30.8027 21.5077C30.8027 21.5077 30.8027 20.6903 31.3428 20.9628Z" fill="#78929A"/>
<path fill-rule="evenodd" clip-rule="evenodd" d="M36.7489 25.0927C36.7489 25.0927 35.6033 26.8754 36.7489 28.369C36.7489 28.369 36.6057 28.9949 36.0811 28.465C35.5557 27.9354 34.9351 26.9716 35.9855 25.0927C35.9855 25.0927 36.5582 24.515 36.7489 25.0927Z" fill="#78929A"/>
<path fill-rule="evenodd" clip-rule="evenodd" d="M35.5086 25.0927C35.5086 25.0927 34.3632 26.8754 35.5086 28.369C35.5086 28.369 35.3652 28.9949 34.8402 28.465C34.3154 27.9354 33.6952 26.9716 34.745 25.0927C34.745 25.0927 35.3177 24.515 35.5086 25.0927Z" fill="#78929A"/>
<path fill-rule="evenodd" clip-rule="evenodd" d="M34.2676 25.0927C34.2676 25.0927 33.1217 26.8754 34.2676 28.369C34.2676 28.369 34.1244 28.9949 33.5998 28.465C33.074 27.9352 32.4539 26.9716 33.5039 25.0927C33.5039 25.0927 34.0763 24.515 34.2676 25.0927Z" fill="#78929A"/>
<path fill-rule="evenodd" clip-rule="evenodd" d="M35.1964 31.8717C35.1964 31.8717 33.1378 32.3145 32.9016 34.1878C32.9016 34.1878 32.3613 34.5286 32.3613 33.7788C32.3613 33.0297 32.5977 31.9052 34.6563 31.3262C34.6563 31.3262 35.467 31.3262 35.1964 31.8717Z" fill="#78929A"/>
<path fill-rule="evenodd" clip-rule="evenodd" d="M34.3199 30.9856C34.3199 30.9856 32.2607 31.4285 32.0243 33.3021C32.0243 33.3021 31.4844 33.6424 31.4844 32.8934C31.4844 32.1437 31.721 31.0196 33.7798 30.4404C33.7798 30.4404 34.5898 30.4405 34.3199 30.9856Z" fill="#78929A"/>
<path fill-rule="evenodd" clip-rule="evenodd" d="M33.4417 30.1006C33.4417 30.1006 31.3833 30.5435 31.1464 32.4171C31.1464 32.4171 30.6064 32.7576 30.6064 32.0082C30.6064 31.2587 30.843 30.1346 32.9018 29.5557C32.9018 29.5557 33.7115 29.5557 33.4417 30.1006Z" fill="#78929A"/>
<path fill-rule="evenodd" clip-rule="evenodd" d="M29.3491 35.5565C29.3491 35.5565 27.5828 34.4001 26.1032 35.5565C26.1032 35.5565 25.4826 35.412 26.008 34.8819C26.533 34.3522 27.4879 33.7255 29.3491 34.7855C29.3491 34.7855 29.9218 35.3636 29.3491 35.5565Z" fill="#78929A"/>
<path fill-rule="evenodd" clip-rule="evenodd" d="M29.3502 34.3045C29.3502 34.3045 27.584 33.1481 26.1043 34.3045C26.1043 34.3045 25.4838 34.1598 26.0088 33.6299C26.5342 33.1002 27.489 32.4737 29.3502 33.5337C29.3502 33.5337 29.9231 34.1118 29.3502 34.3045Z" fill="#78929A"/>
<path fill-rule="evenodd" clip-rule="evenodd" d="M29.3502 33.0516C29.3502 33.0516 27.584 31.895 26.1043 33.0514C26.1043 33.0514 25.4838 32.9069 26.0088 32.377C26.5342 31.8471 27.4886 31.2208 29.3502 32.2807C29.3502 32.2807 29.9229 32.8585 29.3502 33.0516Z" fill="#78929A"/>
<path fill-rule="evenodd" clip-rule="evenodd" d="M22.6333 33.9892C22.6333 33.9892 22.1946 31.9115 20.3381 31.6729C20.3381 31.6729 20.0009 31.1279 20.7434 31.1279C21.4858 31.1279 22.5998 31.3663 23.1736 33.444C23.1736 33.444 23.1734 34.2618 22.6333 33.9892Z" fill="#78929A"/>
<path fill-rule="evenodd" clip-rule="evenodd" d="M23.5111 33.1037C23.5111 33.1037 23.072 31.0256 21.2161 30.7872C21.2161 30.7872 20.8788 30.2418 21.621 30.2422C22.3634 30.2422 23.4774 30.4806 24.051 32.5587C24.051 32.5587 24.051 33.3763 23.5111 33.1037Z" fill="#78929A"/>
<path fill-rule="evenodd" clip-rule="evenodd" d="M24.3884 32.2184C24.3884 32.2184 23.9497 30.1403 22.0932 29.9017C22.0932 29.9017 21.7556 29.3568 22.4979 29.3564C23.2409 29.3564 24.3545 29.5954 24.9283 31.6735C24.9283 31.6735 24.9285 32.4908 24.3884 32.2184Z" fill="#78929A"/>
<path fill-rule="evenodd" clip-rule="evenodd" d="M18.9824 28.0881C18.9824 28.0881 20.1276 26.3055 18.9824 24.8119C18.9824 24.8119 19.1254 24.1858 19.6506 24.716C20.1756 25.2457 20.7964 26.2094 19.746 28.0881C19.746 28.0881 19.1733 28.6663 18.9824 28.0881Z" fill="#78929A"/>
<path fill-rule="evenodd" clip-rule="evenodd" d="M20.2227 28.0883C20.2227 28.0883 21.3683 26.3055 20.2227 24.8123C20.2227 24.8123 20.3664 24.1858 20.891 24.7159C21.4161 25.2459 22.0365 26.2094 20.9865 28.0883C20.9865 28.0883 20.414 28.6665 20.2227 28.0883Z" fill="#78929A"/>
<path fill-rule="evenodd" clip-rule="evenodd" d="M21.4648 28.0882C21.4648 28.0882 22.6103 26.3056 21.4648 24.8122C21.4648 24.8122 21.6078 24.1859 22.1328 24.7158C22.658 25.2458 23.2783 26.2093 22.2281 28.0882C22.2281 28.0882 21.6556 28.6664 21.4648 28.0882Z" fill="#78929A"/>
<path fill-rule="evenodd" clip-rule="evenodd" d="M20.5345 21.3095C20.5345 21.3095 22.5933 20.8672 22.8299 18.9932C22.8299 18.9932 23.3696 18.6527 23.3696 19.4023C23.3696 20.1516 23.1334 21.2759 21.0748 21.8548C21.0748 21.8548 20.2647 21.8548 20.5345 21.3095Z" fill="#78929A"/>
<path fill-rule="evenodd" clip-rule="evenodd" d="M21.4126 22.1957C21.4126 22.1957 23.4714 21.7527 23.708 19.879C23.708 19.879 24.2483 19.5384 24.2479 20.2879C24.2479 21.0371 24.0113 22.1616 21.9525 22.7406C21.9525 22.7406 21.1424 22.7408 21.4126 22.1957Z" fill="#78929A"/>
<path fill-rule="evenodd" clip-rule="evenodd" d="M22.2905 23.0814C22.2905 23.0814 24.3491 22.6387 24.5857 20.7649C24.5857 20.7649 25.1256 20.4239 25.1258 21.1736C25.1258 21.9233 24.8892 23.0471 22.83 23.6265C22.83 23.6265 22.0205 23.6261 22.2905 23.0814Z" fill="white"/>
<path fill-rule="evenodd" clip-rule="evenodd" d="M6.44273 35.8711L6.63038 36.3177L3.06827 37.8421L3.4748 38.8101L3.06409 38.9861L2.05859 36.5927L2.46931 36.417L2.88042 37.3954L6.44273 35.8711Z" fill="#78929A"/>
<path fill-rule="evenodd" clip-rule="evenodd" d="M1.23438 35.3408L3.49131 34.6911L3.49907 34.6768C3.19979 34.5647 2.99443 34.3653 2.90369 34.0432C2.69953 33.321 3.16995 33.0052 3.77548 32.8309L5.31107 32.3887L5.43683 32.8333L3.97784 33.2533C3.55976 33.3736 3.19462 33.5148 3.34087 34.0315C3.5134 34.6427 4.0859 34.5197 4.54835 34.3868L5.77592 34.0333L5.90129 34.4778L1.35993 35.7852L1.23438 35.3408Z" fill="#78929A"/>
<path fill-rule="evenodd" clip-rule="evenodd" d="M1.4006 31.5947C1.58089 31.5618 1.74804 31.6837 1.78028 31.8599C1.81172 32.036 1.6973 32.2099 1.51721 32.2428C1.3427 32.2748 1.16958 32.1537 1.13794 31.9775C1.1061 31.8014 1.22589 31.6267 1.4006 31.5947ZM5.06182 31.0234L5.144 31.4783L2.49664 31.9635L2.41486 31.5086L5.06182 31.0234Z" fill="#78929A"/>
<path fill-rule="evenodd" clip-rule="evenodd" d="M2.50889 29.8462L2.50771 29.8345C2.23549 29.6656 2.07272 29.4302 2.04586 29.0961C1.98496 28.3477 2.5073 28.1306 3.13472 28.0788L4.72605 27.9473L4.76385 28.4078L3.25192 28.5329C2.81832 28.5689 2.43349 28.6353 2.47667 29.1706C2.52821 29.804 3.11323 29.7962 3.59239 29.7566L4.86435 29.6514L4.90175 30.1119L2.22096 30.3336L2.18355 29.8731L2.50889 29.8462Z" fill="#78929A"/>
<path fill-rule="evenodd" clip-rule="evenodd" d="M3.04315 26.6258L2.08701 25.5989L2.11128 24.9813L3.20931 26.1874L4.80759 24.8701L4.78352 25.4818L3.51695 26.5234L3.63196 26.6493L4.73556 26.6937L4.71745 27.1554L0 26.966L0.0183071 26.5043L3.04315 26.6258Z" fill="#78929A"/>
<path fill-rule="evenodd" clip-rule="evenodd" d="M4.52194 23.5449L5.88761 24.3898L5.72126 24.6821L4.31738 23.9486L4.52194 23.5449Z" fill="#78929A"/>
<path fill-rule="evenodd" clip-rule="evenodd" d="M5.68613 20.5234L5.5538 20.9899L1.40527 19.7925L1.53739 19.3262L5.68613 20.5234Z" fill="#78929A"/>
<path fill-rule="evenodd" clip-rule="evenodd" d="M3.88507 18.4047L3.88905 18.3939C3.71832 18.1215 3.67514 17.8377 3.79612 17.5256C4.06814 16.8267 4.63188 16.8637 5.2179 17.0959L6.70416 17.6847L6.53701 18.1149L5.12537 17.5556C4.72043 17.3951 4.34533 17.2838 4.15092 17.7841C3.92089 18.3756 4.4496 18.6284 4.89713 18.8056L6.0853 19.2763L5.91815 19.7065L3.41406 18.7146L3.58121 18.2842L3.88507 18.4047Z" fill="#78929A"/>
<path fill-rule="evenodd" clip-rule="evenodd" d="M5.19472 15.3985L5.2001 15.3887C5.06558 15.096 5.05941 14.809 5.2196 14.5156C5.57858 13.8581 6.13276 13.9685 6.68396 14.2754L8.08207 15.0535L7.86119 15.4581L6.53313 14.7189C6.15226 14.5068 5.79468 14.3477 5.53778 14.8181C5.23393 15.3744 5.72563 15.6943 6.14649 15.9287L7.26422 16.5507L7.04314 16.9552L4.6875 15.6443L4.90898 15.2398L5.19472 15.3985Z" fill="#78929A"/>
<path fill-rule="evenodd" clip-rule="evenodd" d="M7.28704 13.7669C6.65226 13.2927 6.51297 12.4052 6.98278 11.7645C7.4526 11.1239 8.33452 10.9994 8.9691 11.4735C9.60407 11.9479 9.73103 12.8332 9.2644 13.4692C8.79777 14.1053 7.92181 14.2413 7.28704 13.7669ZM7.55488 13.3921C7.99644 13.7221 8.58664 13.6743 8.92413 13.215C9.26102 12.7553 9.13346 12.1714 8.6925 11.8417C8.25512 11.5149 7.66034 11.5593 7.32286 12.0188C6.98577 12.4783 7.11809 13.0656 7.55488 13.3921Z" fill="#78929A"/>
<path fill-rule="evenodd" clip-rule="evenodd" d="M10.4162 10.5959L9.66286 8.74978L10.0189 8.37402L11.1814 11.3344L8.19531 10.2988L8.55509 9.91886L10.4162 10.5959Z" fill="#78929A"/>
<path fill-rule="evenodd" clip-rule="evenodd" d="M14.1483 8.43906L13.7927 8.73008L13.5583 8.43826L13.5495 8.44569C13.5541 8.82808 13.4037 9.1448 13.1104 9.385C12.4967 9.8871 11.688 9.67843 11.2196 9.0952C10.7364 8.49389 10.6998 7.66865 11.3268 7.15572C11.6116 6.92275 11.9773 6.84643 12.3311 6.92897L12.3399 6.92174L12.0983 6.62109L12.4539 6.33008L14.1483 8.43906ZM11.5624 8.76984C11.8937 9.18276 12.4479 9.37677 12.8923 9.01306C13.3503 8.63809 13.291 8.06932 12.9486 7.64295C12.6099 7.22139 12.0738 7.09486 11.6336 7.45516C11.2199 7.79317 11.2454 8.3752 11.5624 8.76984Z" fill="#78929A"/>
<path fill-rule="evenodd" clip-rule="evenodd" d="M15.2311 7.73016L14.8484 7.98402L13.6038 6.07226L13.3696 6.2277L13.1367 5.87062L13.3709 5.71517L12.8398 4.89917L13.2225 4.64551L13.7536 5.46111L14.1556 5.1948L14.3882 5.55189L13.9862 5.8184L15.2311 7.73016Z" fill="#78929A"/>
<path fill-rule="evenodd" clip-rule="evenodd" d="M15.5641 6.03796C15.8027 6.479 16.3038 6.66799 16.7639 6.42156C17.1075 6.23719 17.2197 5.90902 17.2259 5.53948L17.6744 5.55395C17.6724 6.10444 17.4171 6.55512 16.9322 6.8152C16.2248 7.19438 15.4826 6.89252 15.1202 6.20405C14.7471 5.4949 14.8478 4.68914 15.5908 4.29088C16.3539 3.88178 17.0938 4.30253 17.4289 5.0384L15.5641 6.03796ZM16.8218 4.9191C16.5836 4.60198 16.1484 4.47585 15.7946 4.66564C15.4456 4.85242 15.27 5.30651 15.402 5.68027L16.8218 4.9191Z" fill="#78929A"/>
<path fill-rule="evenodd" clip-rule="evenodd" d="M19.1737 5.16406L19.1266 6.77959L18.7928 6.77939L18.7256 5.18595L19.1737 5.16406Z" fill="#78929A"/>
<path fill-rule="evenodd" clip-rule="evenodd" d="M24.4283 0.814384C24.0263 0.525179 23.5199 0.396443 23.0304 0.487422C22.0851 0.663757 21.4713 1.63541 21.6436 2.57813C21.8161 3.52086 22.7386 4.20652 23.6894 4.02938C24.168 3.94021 24.5934 3.6261 24.8686 3.22222L24.9767 3.81308C24.6599 4.14828 24.2374 4.38526 23.7875 4.46921C22.5888 4.69254 21.3964 3.89864 21.174 2.68317C20.9497 1.45666 21.7618 0.265899 22.9774 0.0393548C23.45 -0.0486117 23.8916 0.0100326 24.3204 0.223924L24.4283 0.814384Z" fill="#78929A"/>
<path fill-rule="evenodd" clip-rule="evenodd" d="M25.4859 2.77762C25.4654 1.9807 26.0725 1.32316 26.8619 1.30227C27.6515 1.28138 28.292 1.90598 28.3125 2.70291C28.3332 3.50003 27.7201 4.14612 26.9361 4.1668C26.1521 4.18769 25.5066 3.57474 25.4859 2.77762ZM25.9433 2.75974C25.9577 3.31425 26.3584 3.75429 26.9251 3.73942C27.4917 3.72456 27.8692 3.26384 27.8546 2.70933C27.8405 2.16065 27.4395 1.71479 26.873 1.72965C26.3065 1.74471 25.9292 2.21106 25.9433 2.75974Z" fill="#78929A"/>
<path fill-rule="evenodd" clip-rule="evenodd" d="M28.8047 2.72406C28.8909 1.93176 29.5804 1.36339 30.365 1.45015C31.15 1.53711 31.7008 2.24305 31.6147 3.03535C31.5285 3.82765 30.8346 4.38417 30.0554 4.29781C29.2761 4.21145 28.7184 3.51636 28.8047 2.72406ZM29.2602 2.76884C29.2003 3.31994 29.5384 3.81058 30.1015 3.87284C30.6647 3.9353 31.1003 3.53042 31.1602 2.97932C31.2195 2.43385 30.8818 1.93738 30.3188 1.87512C29.7557 1.81266 29.3195 2.22337 29.2602 2.76884Z" fill="#78929A"/>
<path fill-rule="evenodd" clip-rule="evenodd" d="M32.9779 2.25598L32.989 2.25859C33.1918 2.08507 33.3591 1.96316 33.6496 2.02843C33.8007 2.06237 33.9119 2.1407 34.0245 2.24272L33.7213 2.60664C33.6457 2.5245 33.5967 2.4544 33.4793 2.42789C32.9878 2.31743 32.825 2.94947 32.749 3.2933L32.4567 4.61822L32.0098 4.5178L32.5946 1.86816L33.0415 1.96858L32.9779 2.25598Z" fill="#78929A"/>
<path fill-rule="evenodd" clip-rule="evenodd" d="M35.862 5.24051L35.8511 5.23689C35.5452 5.44195 35.1757 5.4785 34.8293 5.3582C34.0828 5.09872 33.8301 4.29657 34.0723 3.58662C34.3218 2.85497 34.9958 2.38662 35.7587 2.65192C36.0994 2.77021 36.3682 3.04677 36.4807 3.3912L36.4912 3.39502L37.2772 1.09082L37.71 1.24104L36.1736 5.74581L35.741 5.59559L35.862 5.24051ZM34.527 3.70812C34.3559 4.21021 34.486 4.78682 35.0266 4.9748C35.584 5.16841 36.031 4.81674 36.2075 4.29798C36.3826 3.78464 36.2051 3.25885 35.6694 3.07287C35.1663 2.89795 34.691 3.22752 34.527 3.70812Z" fill="#78929A"/>
<path fill-rule="evenodd" clip-rule="evenodd" d="M37.3924 6.32666L36.9775 6.13165L38.1132 3.671L38.5281 3.86621L37.3924 6.32666ZM39.044 2.98113C38.9666 3.14862 38.7714 3.2159 38.6106 3.14039C38.4499 3.06487 38.3754 2.87067 38.4526 2.70297C38.5275 2.54069 38.7253 2.46799 38.886 2.5437C39.047 2.61922 39.1189 2.81865 39.044 2.98113Z" fill="#78929A"/>
<path fill-rule="evenodd" clip-rule="evenodd" d="M39.819 4.9002L39.8284 4.90602C40.1223 4.7791 40.4069 4.7811 40.6926 4.95141C41.3336 5.3332 41.2078 5.88892 40.8878 6.436L40.0755 7.82398L39.6813 7.589L40.4526 6.27091C40.6737 5.89274 40.8421 5.53685 40.3838 5.26371C39.8417 4.94077 39.5104 5.4274 39.2658 5.84534L38.6169 6.95456L38.2227 6.71958L39.5904 4.38184L39.9846 4.61662L39.819 4.9002Z" fill="#78929A"/>
<path fill-rule="evenodd" clip-rule="evenodd" d="M42.6621 9.80441L42.3029 9.51822L42.5333 9.22339L42.5244 9.21656C42.1558 9.30533 41.8166 9.226 41.5203 8.98982C40.9006 8.49596 40.9251 7.65425 41.3861 7.06519C41.8615 6.45786 42.6511 6.24116 43.2843 6.74586C43.5714 6.97482 43.7253 7.31845 43.7233 7.68478L43.7322 7.69181L43.9698 7.38834L44.329 7.67453L42.6621 9.80441ZM41.7756 7.3315C41.4492 7.74844 41.3832 8.33589 41.8323 8.69398C42.2945 9.06272 42.8314 8.87996 43.1687 8.44936C43.5018 8.02359 43.5066 7.46787 43.0622 7.1134C42.6444 6.78041 42.0878 6.93284 41.7756 7.3315Z" fill="#78929A"/>
<path fill-rule="evenodd" clip-rule="evenodd" d="M43.5812 10.7166L43.252 10.3952L44.8272 8.75099L44.6261 8.55437L44.9204 8.24709L45.1217 8.44391L45.7941 7.74219L46.1233 8.06332L45.4509 8.76505L45.7967 9.10225L45.5022 9.40953L45.1566 9.07233L43.5812 10.7166Z" fill="#78929A"/>
<path fill-rule="evenodd" clip-rule="evenodd" d="M45.2948 10.6783C44.9205 11.0097 44.8475 11.5447 45.1864 11.9438C45.4393 12.2418 45.7813 12.2808 46.1403 12.2061L46.2239 12.651C45.6914 12.7692 45.2001 12.6164 44.8423 12.1957C44.3212 11.5817 44.4509 10.785 45.0373 10.2777C45.6411 9.75504 46.4424 9.67792 46.99 10.3226C47.5523 10.9848 47.307 11.8052 46.669 12.2965L45.2948 10.6783ZM46.6517 11.6725C46.906 11.3686 46.9329 10.9121 46.672 10.605C46.4153 10.3026 45.9379 10.2287 45.605 10.4403L46.6517 11.6725Z" fill="#78929A"/>
<path fill-rule="evenodd" clip-rule="evenodd" d="M48.7013 16.8895C48.2189 16.709 47.7067 16.4593 47.4562 15.9789C47.149 15.3915 47.3042 14.6235 47.9115 14.3005C48.5493 13.9611 49.0959 14.2642 49.6602 14.5775L49.7149 14.6074C49.8618 14.3071 50.0106 13.9603 50.3247 13.7934C50.8052 13.5375 51.324 13.7251 51.5745 14.2053C51.8014 14.6395 51.6979 15.1842 51.2525 15.4212C50.7969 15.6636 50.3672 15.4481 49.9462 15.2481L49.3428 16.6071L50.0707 16.7746L49.9804 17.2211L49.1574 17.0321L48.6637 18.1303L48.3809 17.589L48.7013 16.8895ZM49.3142 14.9054C48.9648 14.7193 48.5503 14.4957 48.1608 14.7032C47.8015 14.8944 47.6379 15.386 47.8273 15.7488C48.0299 16.137 48.5047 16.3153 48.8867 16.4645L49.5319 15.0247L49.3142 14.9054ZM50.1706 14.8609C50.4524 14.9918 50.7354 15.1742 51.0388 15.0125C51.2716 14.8888 51.3274 14.6112 51.2098 14.3863C51.0872 14.1513 50.806 14.0593 50.5682 14.1858C50.376 14.2883 50.3008 14.4913 50.2053 14.6793L50.1267 14.8386L50.1706 14.8609Z" fill="#78929A"/>
<path fill-rule="evenodd" clip-rule="evenodd" d="M53.5245 19.0752L54.0938 21.2589L53.662 21.3736L53.2153 19.6591L51.9756 19.9882L52.4096 21.6524L51.978 21.767L51.544 20.1027L49.9063 20.5375L50.3531 22.252L49.9214 22.3667L49.3525 20.183L53.5245 19.0752Z" fill="#78929A"/>
<path fill-rule="evenodd" clip-rule="evenodd" d="M52.6895 22.4961L52.7624 23.0572L51.9459 23.8817L52.9448 24.4661L53.0195 25.0387L51.6434 24.2187L50.3697 25.5229L50.2979 24.9674L51.2705 23.971L50.0754 23.2553L50.001 22.6827L51.5684 23.6405L52.6895 22.4961Z" fill="#78929A"/>
<path fill-rule="evenodd" clip-rule="evenodd" d="M51.6205 26.1283C51.1226 26.1367 50.7238 26.497 50.7266 27.0226C50.7286 27.4157 50.9646 27.6685 51.2862 27.8457L51.0649 28.2397C50.5827 27.9824 50.3059 27.545 50.3028 26.9905C50.2988 26.1817 50.9081 25.6583 51.681 25.6543C52.4765 25.6499 53.137 26.1142 53.1417 26.9634C53.1461 27.8356 52.4333 28.3018 51.6318 28.2598L51.6205 26.1283ZM52.0184 27.7724C52.4073 27.7069 52.7203 27.3759 52.7181 26.9714C52.7159 26.573 52.3991 26.205 52.0097 26.1494L52.0184 27.7724Z" fill="#78929A"/>
<path fill-rule="evenodd" clip-rule="evenodd" d="M51.9811 31.0587L51.9825 31.0472C52.2738 30.8659 52.4859 30.623 52.5269 30.2613C52.5904 29.7048 52.1808 29.2559 51.6462 29.1939C51.1174 29.1324 50.6148 29.4461 50.5507 30.0087C50.5069 30.3933 50.6466 30.6827 50.9111 30.9402L50.9099 30.9518L50.3014 30.8809C50.1551 30.5963 50.0895 30.3158 50.1263 29.994C50.219 29.1792 50.8924 28.6293 51.7001 28.7233C52.496 28.8157 53.0361 29.5355 52.9458 30.3276C52.9125 30.6204 52.7816 30.9074 52.5836 31.1287L51.9811 31.0587Z" fill="#78929A"/>
<path fill-rule="evenodd" clip-rule="evenodd" d="M51.045 32.1957C50.6054 32.0892 50.2148 32.0483 50.0852 32.5931C49.9559 33.138 50.3224 33.2798 50.762 33.3862L52.2198 33.7391L52.1131 34.1882L50.6052 33.8235C49.9097 33.6552 49.4881 33.274 49.6737 32.4933C49.8592 31.7129 50.4058 31.5659 51.1015 31.7342L52.6092 32.0993L52.5026 32.5486L51.045 32.1957Z" fill="#78929A"/>
<path fill-rule="evenodd" clip-rule="evenodd" d="M49.085 34.78L49.2324 34.3428L51.3779 35.0801L51.4683 34.812L51.8692 34.9498L51.7787 35.2177L52.6944 35.5322L52.5466 35.9698L51.6312 35.6551L51.4762 36.1144L51.0755 35.9766L51.2303 35.5173L49.085 34.78Z" fill="#78929A"/>
<path fill-rule="evenodd" clip-rule="evenodd" d="M49.8487 36.3288C49.3924 36.1278 48.8812 36.2886 48.6676 36.768C48.5079 37.1261 48.6185 37.4553 48.838 37.7509L48.4746 38.0166C48.1419 37.5808 48.0697 37.0666 48.2953 36.5607C48.6243 35.8234 49.394 35.603 50.0986 35.9231C50.8239 36.2525 51.234 36.9518 50.8886 37.726C50.5342 38.5213 49.6936 38.6464 48.9821 38.2725L49.8487 36.3288ZM49.5343 37.9915C49.9147 38.0945 50.3356 37.9246 50.4999 37.5559C50.6623 37.1924 50.5254 36.7248 50.1939 36.5112L49.5343 37.9915Z" fill="#78929A"/>
</svg>
